<svg xmlns="http://www.w3.org/2000/svg" xmlns:xlink="http://www.w3.org/1999/xlink" width="500" zoomAndPan="magnify" viewBox="0 0 375 374.999991" height="500" preserveAspectRatio="xMidYMid meet" version="1.0"><defs><clipPath id="b20f861576"><path d="M 72 144 L 289 144 L 289 360.335938 L 72 360.335938 Z M 72 144 " clip-rule="nonzero"/></clipPath><clipPath id="a6f0e6d6c5"><path d="M 72 144 L 269 144 L 269 339 L 72 339 Z M 72 144 " clip-rule="nonzero"/></clipPath><clipPath id="6015b2a980"><path d="M 268.734375 230.410156 C 268.734375 237.304688 268.082031 244.058594 266.847656 250.59375 C 264.410156 263.488281 259.675781 275.570312 253.09375 286.382812 C 234.140625 317.542969 199.851562 338.355469 160.695312 338.355469 C 157.265625 338.355469 153.875 338.199219 150.546875 337.882812 C 143.171875 337.210938 136.039062 335.78125 129.175781 333.683594 C 119.878906 330.871094 111.09375 326.8125 103.046875 321.738281 C 98.964844 319.164062 95.0625 316.3125 91.371094 313.203125 C 88.160156 308.546875 85.304688 303.59375 82.84375 298.441406 C 80.011719 292.441406 77.6875 286.121094 75.988281 279.566406 C 74.582031 274.234375 73.585938 268.753906 73.03125 263.125 L 73.011719 263.125 C 72.65625 259.542969 72.480469 255.898438 72.480469 252.214844 C 72.480469 248.15625 72.695312 244.15625 73.152344 240.230469 C 74.539062 227.453125 78.1875 215.371094 83.65625 204.359375 C 83.65625 204.339844 83.675781 204.339844 83.675781 204.339844 C 101.316406 168.746094 138.050781 144.265625 180.511719 144.265625 C 186.617188 144.265625 192.585938 144.757812 198.414062 145.746094 C 208.644531 147.453125 218.394531 150.578125 227.4375 154.9375 C 234.886719 158.542969 241.867188 162.957031 248.25 168.109375 C 248.804688 168.566406 249.355469 169.019531 249.917969 169.515625 C 250.925781 170.976562 251.898438 172.484375 252.832031 173.988281 C 259.867188 185.460938 264.84375 198.332031 267.179688 212.117188 C 268.199219 218.070312 268.734375 224.171875 268.734375 230.410156 Z M 268.734375 230.410156 " clip-rule="nonzero"/></clipPath><radialGradient gradientTransform="matrix(1.000409, 0, 0, 0.999591, -13.471339, -10.27991)" gradientUnits="userSpaceOnUse" r="97.585045" cx="184.005087" id="eaa47529a9" cy="251.697422" fx="184.005087" fy="251.697422"><stop stop-opacity="1" stop-color="rgb(99.972534%, 53.167725%, 0.128174%)" offset="0"/><stop stop-opacity="1" stop-color="rgb(99.923706%, 52.937317%, 0.352478%)" offset="0.015625"/><stop stop-opacity="1" stop-color="rgb(99.882507%, 52.740479%, 0.546265%)" offset="0.0273438"/><stop stop-opacity="1" stop-color="rgb(99.841309%, 52.54364%, 0.740051%)" offset="0.0390625"/><stop stop-opacity="1" stop-color="rgb(99.80011%, 52.346802%, 0.933838%)" offset="0.0507812"/><stop stop-opacity="1" stop-color="rgb(99.758911%, 52.149963%, 1.126099%)" offset="0.0625"/><stop stop-opacity="1" stop-color="rgb(99.717712%, 51.953125%, 1.319885%)" offset="0.0742188"/><stop stop-opacity="1" stop-color="rgb(99.67804%, 51.756287%, 1.513672%)" offset="0.0859375"/><stop stop-opacity="1" stop-color="rgb(99.636841%, 51.559448%, 1.707458%)" offset="0.0976562"/><stop stop-opacity="1" stop-color="rgb(99.595642%, 51.36261%, 1.899719%)" offset="0.109375"/><stop stop-opacity="1" stop-color="rgb(99.554443%, 51.165771%, 2.093506%)" offset="0.121094"/><stop stop-opacity="1" stop-color="rgb(99.513245%, 50.968933%, 2.287292%)" offset="0.132812"/><stop stop-opacity="1" stop-color="rgb(99.472046%, 50.772095%, 2.479553%)" offset="0.144531"/><stop stop-opacity="1" stop-color="rgb(99.430847%, 50.575256%, 2.67334%)" offset="0.15625"/><stop stop-opacity="1" stop-color="rgb(99.389648%, 50.378418%, 2.867126%)" offset="0.167969"/><stop stop-opacity="1" stop-color="rgb(99.34845%, 50.18158%, 3.060913%)" offset="0.179688"/><stop stop-opacity="1" stop-color="rgb(99.308777%, 49.984741%, 3.253174%)" offset="0.191406"/><stop stop-opacity="1" stop-color="rgb(99.267578%, 49.787903%, 3.44696%)" offset="0.203125"/><stop stop-opacity="1" stop-color="rgb(99.226379%, 49.591064%, 3.640747%)" offset="0.214844"/><stop stop-opacity="1" stop-color="rgb(99.185181%, 49.394226%, 3.833008%)" offset="0.226562"/><stop stop-opacity="1" stop-color="rgb(99.143982%, 49.197388%, 4.026794%)" offset="0.238281"/><stop stop-opacity="1" stop-color="rgb(99.102783%, 49.000549%, 4.220581%)" offset="0.25"/><stop stop-opacity="1" stop-color="rgb(99.047852%, 48.738098%, 4.478455%)" offset="0.261719"/><stop stop-opacity="1" stop-color="rgb(98.980713%, 48.410034%, 4.800415%)" offset="0.28125"/><stop stop-opacity="1" stop-color="rgb(98.912048%, 48.08197%, 5.122375%)" offset="0.300781"/><stop stop-opacity="1" stop-color="rgb(98.843384%, 47.753906%, 5.444336%)" offset="0.320312"/><stop stop-opacity="1" stop-color="rgb(98.774719%, 47.424316%, 5.767822%)" offset="0.339844"/><stop stop-opacity="1" stop-color="rgb(98.706055%, 47.096252%, 6.089783%)" offset="0.359375"/><stop stop-opacity="1" stop-color="rgb(98.64502%, 46.801758%, 6.3797%)" offset="0.378906"/><stop stop-opacity="1" stop-color="rgb(98.591614%, 46.539307%, 6.637573%)" offset="0.394531"/><stop stop-opacity="1" stop-color="rgb(98.536682%, 46.276855%, 6.895447%)" offset="0.410156"/><stop stop-opacity="1" stop-color="rgb(98.48175%, 46.014404%, 7.15332%)" offset="0.425781"/><stop stop-opacity="1" stop-color="rgb(98.426819%, 45.751953%, 7.411194%)" offset="0.441406"/><stop stop-opacity="1" stop-color="rgb(98.371887%, 45.489502%, 7.669067%)" offset="0.457031"/><stop stop-opacity="1" stop-color="rgb(98.316956%, 45.227051%, 7.926941%)" offset="0.472656"/><stop stop-opacity="1" stop-color="rgb(98.26355%, 44.9646%, 8.184814%)" offset="0.488281"/><stop stop-opacity="1" stop-color="rgb(98.214722%, 44.734192%, 8.409119%)" offset="0.503906"/><stop stop-opacity="1" stop-color="rgb(98.173523%, 44.537354%, 8.602905%)" offset="0.515625"/><stop stop-opacity="1" stop-color="rgb(98.132324%, 44.340515%, 8.796692%)" offset="0.527344"/><stop stop-opacity="1" stop-color="rgb(98.091125%, 44.143677%, 8.990479%)" offset="0.539062"/><stop stop-opacity="1" stop-color="rgb(98.049927%, 43.946838%, 9.182739%)" offset="0.550781"/><stop stop-opacity="1" stop-color="rgb(98.008728%, 43.75%, 9.376526%)" offset="0.5625"/><stop stop-opacity="1" stop-color="rgb(97.969055%, 43.553162%, 9.570312%)" offset="0.574219"/><stop stop-opacity="1" stop-color="rgb(97.927856%, 43.356323%, 9.764099%)" offset="0.585938"/><stop stop-opacity="1" stop-color="rgb(97.886658%, 43.159485%, 9.95636%)" offset="0.597656"/><stop stop-opacity="1" stop-color="rgb(97.845459%, 42.962646%, 10.150146%)" offset="0.609375"/><stop stop-opacity="1" stop-color="rgb(97.80426%, 42.765808%, 10.343933%)" offset="0.621094"/><stop stop-opacity="1" stop-color="rgb(97.749329%, 42.503357%, 10.601807%)" offset="0.632812"/><stop stop-opacity="1" stop-color="rgb(97.680664%, 42.175293%, 10.923767%)" offset="0.652344"/><stop stop-opacity="1" stop-color="rgb(97.613525%, 41.847229%, 11.245728%)" offset="0.671875"/><stop stop-opacity="1" stop-color="rgb(97.55249%, 41.552734%, 11.535645%)" offset="0.691406"/><stop stop-opacity="1" stop-color="rgb(97.497559%, 41.290283%, 11.793518%)" offset="0.707031"/><stop stop-opacity="1" stop-color="rgb(97.442627%, 41.027832%, 12.051392%)" offset="0.722656"/><stop stop-opacity="1" stop-color="rgb(97.387695%, 40.765381%, 12.309265%)" offset="0.738281"/><stop stop-opacity="1" stop-color="rgb(97.338867%, 40.534973%, 12.535095%)" offset="0.753906"/><stop stop-opacity="1" stop-color="rgb(97.297668%, 40.338135%, 12.728882%)" offset="0.765625"/><stop stop-opacity="1" stop-color="rgb(97.257996%, 40.141296%, 12.921143%)" offset="0.777344"/><stop stop-opacity="1" stop-color="rgb(97.216797%, 39.944458%, 13.114929%)" offset="0.789062"/><stop stop-opacity="1" stop-color="rgb(97.175598%, 39.74762%, 13.308716%)" offset="0.800781"/><stop stop-opacity="1" stop-color="rgb(97.134399%, 39.550781%, 13.500977%)" offset="0.8125"/><stop stop-opacity="1" stop-color="rgb(97.079468%, 39.28833%, 13.75885%)" offset="0.824219"/><stop stop-opacity="1" stop-color="rgb(97.010803%, 38.95874%, 14.082336%)" offset="0.84375"/><stop stop-opacity="1" stop-color="rgb(96.949768%, 38.664246%, 14.372253%)" offset="0.863281"/><stop stop-opacity="1" stop-color="rgb(96.902466%, 38.433838%, 14.598083%)" offset="0.878906"/><stop stop-opacity="1" stop-color="rgb(96.861267%, 38.237%, 14.790344%)" offset="0.890625"/><stop stop-opacity="1" stop-color="rgb(96.820068%, 38.040161%, 14.984131%)" offset="0.902344"/><stop stop-opacity="1" stop-color="rgb(96.765137%, 37.77771%, 15.242004%)" offset="0.914062"/><stop stop-opacity="1" stop-color="rgb(96.704102%, 37.483215%, 15.531921%)" offset="0.933594"/><stop stop-opacity="1" stop-color="rgb(96.655273%, 37.252808%, 15.757751%)" offset="0.949219"/><stop stop-opacity="1" stop-color="rgb(96.601868%, 36.990356%, 16.015625%)" offset="0.960938"/><stop stop-opacity="1" stop-color="rgb(96.533203%, 36.662292%, 16.337585%)" offset="0.980469"/><stop stop-opacity="1" stop-color="rgb(96.499634%, 36.499023%, 16.499329%)" offset="1"/></radialGradient><clipPath id="f716a8f0eb"><path d="M 170 308 L 273 308 L 273 360.335938 L 170 360.335938 Z M 170 308 " clip-rule="nonzero"/></clipPath><clipPath id="953ff3688c"><path d="M 25.222656 192 L 344 192 L 344 343 L 25.222656 343 Z M 25.222656 192 " clip-rule="nonzero"/></clipPath><clipPath id="1c029f1b77"><path d="M 25.222656 192 L 340 192 L 340 335 L 25.222656 335 Z M 25.222656 192 " clip-rule="nonzero"/></clipPath><clipPath id="c43545d6c4"><path d="M 81 14.585938 L 178 14.585938 L 178 111 L 81 111 Z M 81 14.585938 " clip-rule="nonzero"/></clipPath><clipPath id="595af8ecae"><path d="M 88 14.585938 L 142 14.585938 L 142 39 L 88 39 Z M 88 14.585938 " clip-rule="nonzero"/></clipPath></defs><g clip-path="url(#b20f861576)"><path fill="#dd2c14" d="M 288.554688 252.21875 C 288.554688 259.113281 287.902344 265.867188 286.671875 272.402344 C 284.230469 285.296875 279.496094 297.378906 272.914062 308.191406 C 253.964844 339.351562 219.671875 360.164062 180.519531 360.164062 C 177.089844 360.164062 173.699219 360.007812 170.367188 359.691406 C 162.996094 359.019531 155.859375 357.589844 148.996094 355.492188 C 139.699219 352.679688 130.917969 348.621094 122.871094 343.546875 C 111.214844 336.179688 101.066406 326.652344 93 315.519531 C 92.445312 314.75 91.890625 313.996094 91.371094 313.203125 C 88.160156 308.546875 85.304688 303.59375 82.84375 298.441406 C 80.011719 292.441406 77.6875 286.121094 75.988281 279.566406 C 74.582031 274.234375 73.585938 268.753906 73.03125 263.125 L 73.011719 263.125 C 72.65625 259.542969 72.480469 255.898438 72.480469 252.214844 C 72.480469 248.15625 72.695312 244.15625 73.152344 240.230469 C 74.539062 227.453125 78.1875 215.371094 83.65625 204.359375 C 83.65625 204.339844 83.675781 204.339844 83.675781 204.339844 C 101.316406 168.746094 138.050781 144.265625 180.511719 144.265625 C 186.617188 144.265625 192.585938 144.757812 198.414062 145.746094 C 208.644531 147.453125 218.394531 150.578125 227.4375 154.9375 C 234.886719 158.542969 241.867188 162.957031 248.25 168.109375 C 248.804688 168.566406 249.355469 169.019531 249.917969 169.515625 C 254.136719 173 258.085938 176.859375 261.710938 181.003906 C 263.539062 183.066406 265.28125 185.203125 266.929688 187.402344 C 268.972656 190.097656 270.871094 192.910156 272.65625 195.800781 C 279.695312 207.273438 284.671875 220.148438 287.007812 233.929688 C 288.023438 239.878906 288.554688 245.980469 288.554688 252.21875 Z M 288.554688 252.21875 " fill-opacity="1" fill-rule="nonzero"/></g><g clip-path="url(#a6f0e6d6c5)"><g clip-path="url(#6015b2a980)"><path fill="url(#eaa47529a9)" d="M 72.480469 144.265625 L 72.480469 338.355469 L 268.734375 338.355469 L 268.734375 144.265625 Z M 72.480469 144.265625 " fill-rule="nonzero"/></g></g><path fill="#fcb89d" d="M 227.441406 154.949219 C 220.027344 164.792969 205.417969 178.539062 185.476562 187.847656 C 155.742188 201.710938 139.882812 207.652344 120.0625 221.515625 C 104.914062 232.09375 85.171875 239.203125 73.160156 240.234375 C 74.546875 227.460938 78.199219 215.375 83.667969 204.367188 C 83.667969 204.347656 83.6875 204.347656 83.6875 204.347656 C 92.886719 199.035156 149.792969 179.921875 171.601562 166.058594 C 182.660156 159.027344 191.699219 151.484375 198.421875 145.757812 C 208.648438 147.457031 218.402344 150.589844 227.441406 154.949219 Z M 227.441406 154.949219 " fill-opacity="0.3" fill-rule="nonzero"/><path fill="#fcb89d" d="M 261.71875 181.015625 C 256.34375 189.214844 247.507812 199.160156 237.015625 209.636719 C 217.195312 229.441406 209.261719 229.441406 185.476562 245.289062 C 161.691406 261.132812 161.691406 241.328125 163.667969 223.5 C 165.652344 205.671875 193.402344 209.636719 217.195312 195.769531 C 231.046875 187.683594 241.539062 176.257812 248.257812 168.113281 C 253.113281 172.019531 257.609375 176.335938 261.71875 181.015625 Z M 261.71875 181.015625 " fill-opacity="0.3" fill-rule="nonzero"/><path fill="#fcb89d" d="M 137.898438 241.324219 C 137.898438 241.324219 129.972656 257.167969 102.21875 273.015625 C 86.160156 282.1875 81.386719 282.066406 75.992188 279.570312 C 74.585938 274.242188 73.59375 268.757812 73.039062 263.132812 C 85.46875 261.148438 116.097656 243.304688 137.898438 241.324219 Z M 137.898438 241.324219 " fill-opacity="0.3" fill-rule="nonzero"/><path fill="#fcb89d" d="M 272.65625 195.808594 C 272.105469 203.785156 270.59375 212.761719 266.75 217.554688 C 258.824219 227.460938 256.839844 243.304688 223.140625 269.054688 C 189.445312 294.804688 181.511719 278.957031 159.707031 292.820312 C 139.765625 305.5 116.53125 311.558594 93 315.519531 C 89.113281 310.191406 85.726562 304.46875 82.851562 298.449219 C 84.335938 296.820312 85.644531 295.515625 86.359375 294.804688 C 90.320312 290.84375 124.023438 282.917969 143.847656 278.957031 C 163.667969 274.996094 205.296875 245.289062 227.105469 229.441406 C 242.882812 217.972656 258.664062 198.207031 266.929688 187.410156 C 268.972656 190.105469 270.871094 192.914062 272.65625 195.808594 Z M 272.65625 195.808594 " fill-opacity="0.3" fill-rule="nonzero"/><path fill="#fcb89d" d="M 288.554688 252.21875 C 288.554688 259.113281 287.902344 265.867188 286.671875 272.402344 C 280.644531 278.148438 270.59375 281.652344 258.816406 286.878906 C 240.976562 294.800781 242.957031 300.742188 227.101562 312.628906 C 211.242188 324.511719 213.226562 332.433594 189.433594 336.394531 C 171.433594 339.386719 160.234375 349.191406 148.996094 355.488281 C 139.699219 352.675781 130.917969 348.617188 122.871094 343.542969 C 126.203125 340.078125 131.019531 336.253906 137.898438 332.433594 C 155.742188 322.53125 181.507812 314.605469 195.386719 312.628906 C 209.261719 310.644531 233.050781 286.878906 240.980469 273.015625 C 248.90625 259.152344 260.800781 245.285156 272.699219 241.324219 C 278.605469 239.359375 283.539062 236.410156 287.007812 233.9375 C 288.023438 239.878906 288.554688 245.980469 288.554688 252.21875 Z M 288.554688 252.21875 " fill-opacity="0.3" fill-rule="nonzero"/><g clip-path="url(#f716a8f0eb)"><path fill="#fcb89d" d="M 272.914062 308.191406 C 253.964844 339.351562 219.671875 360.164062 180.519531 360.164062 C 177.089844 360.164062 173.699219 360.007812 170.367188 359.691406 C 171.9375 354.105469 189.972656 351.828125 209.261719 336.398438 C 229.089844 320.554688 254.855469 318.570312 272.914062 308.191406 Z M 272.914062 308.191406 " fill-opacity="0.3" fill-rule="nonzero"/></g><g clip-path="url(#953ff3688c)"><path fill="#8eb4f4" d="M 197.003906 296.390625 C 109.414062 334.324219 32.769531 352.140625 25.851562 336.160156 C 25.363281 335.039062 25.238281 333.792969 25.445312 332.410156 C 26.535156 325.0625 37.238281 314.15625 54.933594 301.457031 C 56.621094 300.246094 58.371094 299.019531 60.199219 297.777344 C 58.742188 299.386719 57.632812 300.859375 56.984375 302.175781 C 56.089844 303.875 55.882812 305.332031 56.386719 306.507812 C 60.878906 316.871094 119.957031 301.246094 188.3125 271.644531 C 256.671875 242.023438 308.441406 209.621094 303.949219 199.273438 C 303.386719 197.992188 302 197.097656 299.84375 196.589844 C 299.230469 196.429688 298.5625 196.328125 297.84375 196.238281 C 298.636719 196.078125 299.421875 195.921875 300.214844 195.78125 C 319.625 192.132812 333.683594 191.835938 339.949219 195.484375 C 341.4375 196.347656 342.492188 197.433594 343.054688 198.75 C 349.988281 214.726562 284.597656 258.445312 197.003906 296.390625 Z M 197.003906 296.390625 " fill-opacity="1" fill-rule="nonzero"/></g><g clip-path="url(#1c029f1b77)"><path fill="#7b8fc7" d="M 339.953125 195.492188 C 337.199219 213.8125 274.949219 254.078125 193.496094 289.378906 C 113.132812 324.171875 41.984375 342.039062 25.449219 332.414062 C 26.539062 325.066406 37.242188 314.160156 54.9375 301.464844 C 55.515625 301.761719 56.199219 301.988281 56.992188 302.179688 C 56.09375 303.882812 55.886719 305.335938 56.390625 306.511719 C 60.886719 316.875 119.960938 301.25 188.316406 271.652344 C 256.675781 242.03125 308.449219 209.625 303.957031 199.277344 C 303.390625 197.996094 302.003906 197.101562 299.847656 196.59375 C 300.007812 196.3125 300.128906 196.050781 300.214844 195.789062 C 319.625 192.136719 333.683594 191.84375 339.953125 195.492188 Z M 339.953125 195.492188 " fill-opacity="1" fill-rule="nonzero"/></g><path fill="#c69297" d="M 193.859375 152.828125 C 191.070312 158.398438 182.425781 162.855469 177.132812 160.90625 C 171.839844 158.957031 166.078125 95.308594 166.078125 95.308594 C 166.078125 95.308594 181.867188 92.703125 189.015625 98.855469 C 189.707031 99.457031 190.320312 100.132812 190.824219 100.902344 C 191.136719 101.375 191.402344 101.875 191.632812 102.414062 C 196.089844 112.992188 196.648438 147.253906 193.859375 152.828125 Z M 193.859375 152.828125 " fill-opacity="1" fill-rule="nonzero"/><path fill="#f9e6ce" d="M 193.582031 152.550781 C 190.796875 158.121094 182.152344 162.578125 176.855469 160.628906 C 171.5625 158.679688 165.800781 95.03125 165.800781 95.03125 C 165.800781 95.03125 181.589844 92.425781 188.738281 98.582031 C 189.429688 99.179688 190.042969 99.855469 190.546875 100.628906 C 190.859375 101.097656 191.125 101.597656 191.355469 102.136719 C 195.8125 112.714844 196.367188 146.980469 193.582031 152.550781 Z M 193.582031 152.550781 " fill-opacity="1" fill-rule="nonzero"/><path fill="#dfbeb5" d="M 156.320312 97.808594 C 156.320312 97.808594 177.410156 94.328125 181.875 104.914062 C 186.332031 115.5 186.890625 149.761719 184.105469 155.328125 C 181.320312 160.902344 172.675781 165.355469 167.378906 163.40625 C 162.085938 161.460938 156.320312 97.808594 156.320312 97.808594 Z M 156.320312 97.808594 " fill-opacity="1" fill-rule="nonzero"/><path fill="#dfbeb5" d="M 196.914062 143.9375 L 189.214844 144.285156 C 189.078125 144.289062 188.945312 144.285156 188.8125 144.269531 C 187.59375 144.125 186.617188 143.117188 186.5625 141.863281 L 186.039062 130.253906 C 185.980469 128.859375 187.070312 127.667969 188.46875 127.601562 L 196.164062 127.257812 C 197.347656 127.203125 198.378906 127.972656 198.710938 129.054688 C 198.773438 129.253906 198.804688 129.460938 198.820312 129.679688 L 199.339844 141.289062 C 199.398438 142.683594 198.3125 143.878906 196.914062 143.9375 Z M 196.914062 143.9375 " fill-opacity="1" fill-rule="nonzero"/><path fill="#f9e6ce" d="M 196.914062 143.9375 L 189.214844 144.285156 C 189.078125 144.289062 188.945312 144.285156 188.8125 144.269531 C 188.75 144.070312 188.710938 143.859375 188.703125 143.644531 L 188.175781 132.039062 C 188.117188 130.644531 189.207031 129.453125 190.605469 129.386719 L 198.300781 129.042969 C 198.441406 129.035156 198.578125 129.042969 198.710938 129.054688 C 198.773438 129.253906 198.804688 129.460938 198.820312 129.679688 L 199.339844 141.289062 C 199.398438 142.683594 198.3125 143.878906 196.914062 143.9375 Z M 196.914062 143.9375 " fill-opacity="1" fill-rule="nonzero"/><path fill="#c69297" d="M 181.058594 154.003906 C 181.015625 154.300781 180.976562 154.601562 180.933594 154.890625 C 180.429688 158.121094 179.507812 160.90625 178.300781 163.308594 C 173.734375 172.421875 165.089844 176.078125 159.855469 178.246094 C 148.421875 182.980469 152.605469 192.730469 154.140625 204.84375 C 154.648438 208.875 144.367188 221.53125 134.074219 223.5 C 132 223.898438 129.921875 223.859375 127.933594 223.226562 C 127.15625 222.980469 126.601562 222.40625 126.046875 221.992188 C 117.546875 215.726562 125.320312 209.617188 127.933594 205.957031 C 128.367188 205.347656 128.695312 204.75 128.933594 204.183594 C 129.070312 203.867188 129.175781 203.558594 129.257812 203.261719 C 129.71875 201.644531 129.535156 200.300781 129.324219 199.503906 C 129.289062 199.371094 129.25 199.253906 129.21875 199.148438 C 129.125 198.871094 129.050781 198.71875 129.050781 198.71875 C 129.050781 199 128.878906 199.386719 128.558594 199.847656 C 126.359375 202.980469 117.175781 209.527344 108.777344 210.402344 C 107.683594 210.519531 106.601562 210.539062 105.550781 210.4375 C 105.484375 210.433594 105.417969 210.425781 105.359375 210.421875 C 105.195312 210.40625 105.039062 210.382812 104.878906 210.363281 C 104.746094 210.34375 104.613281 210.324219 104.480469 210.296875 C 104.1875 210.25 103.914062 210.183594 103.652344 210.121094 C 103.59375 210.105469 103.535156 210.089844 103.480469 210.070312 C 103.46875 210.070312 103.464844 210.066406 103.460938 210.066406 C 103.359375 210.042969 103.265625 210.011719 103.175781 209.980469 C 103.128906 209.96875 103.082031 209.953125 103.039062 209.9375 C 102.953125 209.90625 102.871094 209.882812 102.785156 209.855469 C 102.691406 209.820312 102.597656 209.785156 102.507812 209.75 C 102.484375 209.738281 102.46875 209.734375 102.449219 209.726562 C 102.414062 209.710938 102.386719 209.695312 102.351562 209.683594 C 102.257812 209.644531 102.167969 209.605469 102.078125 209.566406 C 102 209.527344 101.914062 209.488281 101.839844 209.441406 C 101.78125 209.414062 101.722656 209.382812 101.664062 209.347656 C 101.609375 209.324219 101.558594 209.292969 101.503906 209.261719 C 101.414062 209.210938 101.332031 209.160156 101.246094 209.101562 C 101.144531 209.03125 101.042969 208.96875 100.949219 208.894531 C 100.851562 208.824219 100.761719 208.75 100.667969 208.675781 C 100.578125 208.601562 100.496094 208.527344 100.410156 208.449219 C 100.328125 208.371094 100.242188 208.292969 100.164062 208.210938 C 100.066406 208.113281 99.972656 208.003906 99.882812 207.894531 C 99.855469 207.867188 99.832031 207.835938 99.808594 207.800781 C 99.78125 207.765625 99.757812 207.738281 99.734375 207.707031 C 99.738281 207.707031 99.738281 207.707031 99.738281 207.707031 C 96.855469 203.949219 98.9375 199.007812 100.203125 196.355469 C 101.738281 193.152344 104.382812 191.621094 106.058594 190.230469 C 106.292969 190.03125 106.476562 189.84375 106.613281 189.671875 C 106.894531 189.316406 106.988281 189.027344 107.015625 188.859375 C 107.042969 188.757812 107.03125 188.699219 107.03125 188.699219 C 106.984375 188.59375 106.933594 188.488281 106.886719 188.386719 C 94.320312 161.644531 108.71875 157.214844 112.050781 155.269531 C 115.394531 153.320312 117.207031 149 114.417969 137.027344 C 111.632812 125.046875 118.601562 107.5 118.601562 107.5 L 160.359375 98.191406 L 164.386719 97.289062 C 164.386719 97.289062 167.035156 98.160156 173.082031 115.015625 C 173.105469 115.078125 173.128906 115.144531 173.148438 115.210938 C 174.679688 119.484375 176.425781 124.769531 178.394531 131.3125 C 181.195312 140.628906 181.824219 148.050781 181.058594 154.003906 Z M 181.058594 154.003906 " fill-opacity="1" fill-rule="nonzero"/><path fill="#f9e6ce" d="M 180.496094 153.445312 C 180.457031 153.742188 180.417969 154.042969 180.375 154.332031 C 179.871094 157.5625 178.949219 160.347656 177.742188 162.75 C 173.175781 171.863281 164.53125 175.519531 159.292969 177.6875 C 147.863281 182.421875 152.046875 192.171875 153.578125 204.285156 C 154.089844 208.316406 143.808594 220.972656 133.515625 222.941406 C 131.441406 223.339844 129.363281 223.300781 127.375 222.667969 C 126.597656 222.421875 126.042969 221.847656 125.488281 221.433594 C 116.988281 215.167969 124.761719 209.058594 127.375 205.398438 C 127.808594 204.789062 128.136719 204.191406 128.375 203.625 C 128.511719 203.308594 128.617188 203 128.699219 202.703125 C 129.160156 201.085938 128.976562 199.742188 128.765625 198.945312 C 128.730469 198.8125 128.691406 198.695312 128.660156 198.589844 C 128.566406 198.3125 128.492188 198.160156 128.492188 198.160156 C 128.492188 198.441406 128.320312 198.828125 127.996094 199.289062 C 125.800781 202.421875 116.617188 208.96875 108.21875 209.84375 C 107.125 209.960938 106.042969 209.980469 104.992188 209.878906 C 104.925781 209.875 104.859375 209.867188 104.800781 209.863281 C 104.636719 209.847656 104.480469 209.824219 104.320312 209.804688 C 104.1875 209.785156 104.054688 209.765625 103.917969 209.738281 C 103.628906 209.691406 103.355469 209.625 103.09375 209.5625 C 103.035156 209.546875 102.972656 209.53125 102.921875 209.511719 C 102.910156 209.511719 102.90625 209.507812 102.898438 209.507812 C 102.800781 209.484375 102.707031 209.453125 102.617188 209.421875 C 102.570312 209.410156 102.523438 209.394531 102.480469 209.378906 C 102.394531 209.347656 102.3125 209.324219 102.226562 209.292969 C 102.132812 209.261719 102.039062 209.226562 101.949219 209.191406 C 101.925781 209.179688 101.910156 209.175781 101.890625 209.167969 C 101.855469 209.152344 101.828125 209.136719 101.792969 209.125 C 101.699219 209.085938 101.609375 209.046875 101.519531 209.007812 C 101.441406 208.96875 101.355469 208.929688 101.28125 208.882812 C 101.222656 208.855469 101.164062 208.824219 101.105469 208.789062 C 101.050781 208.765625 101 208.734375 100.945312 208.703125 C 100.855469 208.652344 100.773438 208.601562 100.6875 208.542969 C 100.585938 208.472656 100.484375 208.410156 100.390625 208.335938 C 100.292969 208.265625 100.203125 208.191406 100.109375 208.117188 C 100.019531 208.042969 99.9375 207.96875 99.851562 207.890625 C 99.769531 207.8125 99.683594 207.734375 99.605469 207.652344 C 99.503906 207.554688 99.410156 207.445312 99.324219 207.335938 C 99.296875 207.308594 99.273438 207.277344 99.25 207.242188 C 99.222656 207.207031 99.199219 207.179688 99.175781 207.148438 C 99.179688 207.148438 99.179688 207.148438 99.179688 207.148438 C 96.292969 203.390625 98.378906 198.449219 99.644531 195.796875 C 101.179688 192.59375 103.824219 191.0625 105.5 189.671875 C 105.734375 189.472656 105.917969 189.285156 106.050781 189.113281 C 106.335938 188.757812 106.429688 188.46875 106.457031 188.300781 C 106.484375 188.199219 106.472656 188.140625 106.472656 188.140625 C 106.421875 188.035156 106.375 187.929688 106.328125 187.828125 C 93.761719 161.085938 108.160156 156.65625 111.492188 154.710938 C 114.835938 152.761719 116.644531 148.441406 113.859375 136.46875 C 112.988281 132.714844 113.074219 128.414062 113.597656 124.28125 C 114.613281 116.359375 117.246094 109.042969 117.898438 107.320312 C 117.992188 107.074219 118.042969 106.941406 118.042969 106.941406 L 159.800781 97.632812 L 163.828125 96.730469 C 163.828125 96.730469 166.476562 97.601562 172.519531 114.457031 C 172.546875 114.519531 172.570312 114.585938 172.589844 114.652344 C 174.121094 118.925781 175.867188 124.210938 177.835938 130.753906 C 180.640625 140.070312 181.265625 147.496094 180.496094 153.445312 Z M 180.496094 153.445312 " fill-opacity="1" fill-rule="nonzero"/><path fill="#fcf0e3" d="M 117.886719 107.316406 C 117.367188 112.25 116.449219 119.886719 115.523438 121.910156 C 115.074219 122.894531 114.371094 123.675781 113.589844 124.273438 C 114.601562 116.351562 117.238281 109.03125 117.886719 107.316406 Z M 117.886719 107.316406 " fill-opacity="1" fill-rule="nonzero"/><path fill="#dfbeb5" d="M 180.496094 153.445312 C 180.457031 153.742188 180.417969 154.042969 180.375 154.332031 C 177.542969 157.351562 171.585938 158.675781 164.03125 155.609375 C 155.109375 151.992188 117.753906 150.875 117.753906 150.875 C 117.753906 150.875 116.917969 135.554688 117.050781 128.785156 C 117.179688 122.019531 119.511719 111.667969 119.511719 111.667969 L 119.738281 111.597656 L 152.378906 102.136719 L 157.578125 100.628906 C 157.578125 100.628906 166.691406 108.429688 172.585938 114.648438 C 174.113281 118.921875 175.863281 124.207031 177.832031 130.746094 C 180.640625 140.070312 181.265625 147.496094 180.496094 153.445312 Z M 180.496094 153.445312 " fill-opacity="1" fill-rule="nonzero"/><path fill="#f9e6ce" d="M 146.1875 133.050781 C 140.890625 134.226562 125.800781 136.921875 120.324219 128.421875 C 118.089844 124.960938 117.457031 119.640625 119.734375 111.601562 L 149.855469 102.867188 L 152.367188 102.136719 C 156.335938 108.636719 161.347656 117.605469 161.511719 121.625 C 161.796875 128.316406 153.714844 131.378906 146.1875 133.050781 Z M 146.1875 133.050781 " fill-opacity="1" fill-rule="nonzero"/><path fill="#fcf0e3" d="M 140.617188 128.589844 C 136.636719 129.476562 127.132812 131.210938 120.328125 128.421875 C 118.097656 124.960938 117.460938 119.640625 119.738281 111.601562 L 149.859375 102.867188 C 152.957031 108.332031 155.820312 114.148438 155.945312 117.171875 C 156.226562 123.859375 148.140625 126.921875 140.617188 128.589844 Z M 140.617188 128.589844 " fill-opacity="1" fill-rule="nonzero"/><path fill="#dfbeb5" d="M 128.132812 198.914062 C 128.058594 199.050781 127.964844 199.203125 127.855469 199.363281 C 125.65625 202.496094 116.472656 209.042969 108.074219 209.917969 C 106.761719 210 105.640625 210.015625 104.851562 209.953125 C 104.78125 209.949219 104.714844 209.941406 104.65625 209.9375 C 104.492188 209.921875 104.335938 209.898438 104.175781 209.878906 C 104.042969 209.859375 103.910156 209.839844 103.777344 209.8125 C 103.484375 209.765625 103.210938 209.699219 102.949219 209.636719 C 102.890625 209.621094 102.832031 209.605469 102.777344 209.585938 C 102.765625 209.585938 102.761719 209.582031 102.757812 209.582031 C 102.65625 209.558594 102.5625 209.527344 102.476562 209.496094 C 102.425781 209.484375 102.378906 209.46875 102.335938 209.453125 C 102.253906 209.421875 102.167969 209.398438 102.082031 209.367188 C 101.988281 209.335938 101.894531 209.300781 101.808594 209.265625 C 101.78125 209.253906 101.765625 209.25 101.746094 209.242188 C 101.710938 209.226562 101.683594 209.210938 101.648438 209.199219 C 101.554688 209.160156 101.464844 209.121094 101.375 209.082031 C 101.292969 209.042969 101.214844 209.003906 101.140625 208.957031 C 101.078125 208.929688 101.019531 208.898438 100.960938 208.863281 C 100.90625 208.839844 100.855469 208.808594 100.800781 208.777344 C 100.714844 208.726562 100.628906 208.675781 100.546875 208.617188 C 100.441406 208.546875 100.34375 208.484375 100.25 208.410156 C 100.148438 208.339844 100.058594 208.265625 99.964844 208.191406 C 99.878906 208.117188 99.792969 208.042969 99.707031 207.964844 C 99.625 207.886719 99.539062 207.808594 99.460938 207.726562 C 99.304688 207.570312 99.164062 207.402344 99.03125 207.226562 C 107.988281 207.539062 118.230469 205.417969 122.78125 199.355469 C 125.289062 196.015625 125.386719 195.25 127.253906 192.859375 C 127.738281 195.019531 128.132812 197.269531 128.132812 198.914062 Z M 128.132812 198.914062 " fill-opacity="1" fill-rule="nonzero"/><path fill="#fcfcc3" d="M 97.402344 116.617188 L 97.917969 119.988281 L 118.441406 129.425781 L 142.84375 120.558594 L 141.757812 116.886719 C 141.757812 116.886719 127.785156 121.066406 118.878906 126.5 C 118.878906 126.503906 109.667969 119.398438 97.402344 116.617188 Z M 97.402344 116.617188 " fill-opacity="1" fill-rule="nonzero"/><path fill="#d8d4a8" d="M 97.402344 117.453125 L 97.917969 120.824219 L 118.441406 130.261719 L 142.84375 121.394531 L 141.757812 117.722656 C 141.757812 117.722656 127.785156 121.902344 118.878906 127.335938 C 118.878906 127.339844 109.667969 120.234375 97.402344 117.453125 Z M 97.402344 117.453125 " fill-opacity="1" fill-rule="nonzero"/><path fill="#ef5463" d="M 157.339844 154.777344 C 146.617188 152.34375 133.550781 158.632812 130.433594 160.253906 C 130.339844 160.304688 130.257812 160.347656 130.179688 160.386719 C 129.894531 160.535156 129.738281 160.625 129.738281 160.625 L 127.550781 159.777344 L 127.226562 159.652344 L 108.832031 152.546875 L 107.121094 147.53125 L 96.84375 117.449219 L 117.8125 126.726562 L 118.144531 126.875 L 118.867188 127.195312 L 120.222656 126.726562 L 120.492188 126.636719 L 143.960938 118.558594 L 146.652344 125.695312 L 150.375 135.554688 Z M 157.339844 154.777344 " fill-opacity="1" fill-rule="nonzero"/><path fill="#c69297" d="M 161.398438 149.957031 C 161.023438 149.925781 160.753906 149.628906 160.546875 149.125 C 160.070312 147.960938 159.914062 145.6875 159.433594 143.0625 C 158.742188 139.277344 157.359375 134.761719 153.355469 131.796875 C 153.355469 131.796875 156.144531 131.714844 161.921875 129.046875 C 167.703125 126.375 168.875 128.289062 163.304688 118.691406 C 153.757812 102.25 160.207031 102.0625 167.800781 97.785156 C 167.84375 97.757812 167.894531 97.730469 167.9375 97.707031 C 167.964844 97.691406 167.988281 97.675781 168.011719 97.664062 C 168.011719 97.664062 182.648438 112.296875 185.351562 128.941406 C 188.050781 145.578125 163.910156 150.164062 161.398438 149.957031 Z M 161.398438 149.957031 " fill-opacity="1" fill-rule="nonzero"/><path fill="#dfbeb5" d="M 160.546875 149.125 C 160.070312 147.960938 159.914062 145.6875 159.433594 143.0625 C 158.742188 139.277344 157.359375 134.761719 153.355469 131.796875 C 153.355469 131.796875 156.144531 131.714844 161.921875 129.046875 C 167.703125 126.375 168.875 128.289062 163.304688 118.691406 C 153.757812 102.25 160.207031 102.0625 167.800781 97.785156 C 171.042969 101.289062 181.9375 113.972656 184.234375 128.101562 C 186.855469 144.273438 164.140625 149.058594 160.546875 149.125 Z M 160.546875 149.125 " fill-opacity="1" fill-rule="nonzero"/><path fill="#f9e6ce" d="M 159.429688 143.0625 C 159.175781 141.667969 158.824219 140.175781 158.285156 138.699219 C 157.363281 136.160156 155.878906 133.667969 153.351562 131.796875 C 153.351562 131.796875 156.136719 131.714844 161.917969 129.046875 C 167.695312 126.375 168.871094 128.289062 163.296875 118.691406 C 154.839844 104.117188 158.9375 102.3125 165.265625 99.113281 C 166.125 98.683594 167.019531 98.222656 167.933594 97.707031 C 172.386719 103.53125 178.167969 112.675781 179.769531 122.53125 C 181.941406 135.910156 166.773438 141.496094 159.429688 143.0625 Z M 159.429688 143.0625 " fill-opacity="1" fill-rule="nonzero"/><path fill="#fcf0e3" d="M 158.285156 138.691406 C 157.363281 136.15625 155.878906 133.664062 153.351562 131.789062 C 153.351562 131.789062 156.136719 131.710938 161.917969 129.042969 C 167.695312 126.371094 168.871094 128.285156 163.296875 118.6875 C 154.839844 104.113281 158.9375 102.308594 165.265625 99.109375 C 168.949219 104.671875 172.675781 111.855469 173.910156 119.464844 C 175.6875 130.371094 165.929688 136.101562 158.285156 138.691406 Z M 158.285156 138.691406 " fill-opacity="1" fill-rule="nonzero"/><path fill="#e52972" d="M 166.90625 94.015625 C 167.617188 95.261719 168.554688 97.082031 168.085938 99.039062 C 166.609375 105.246094 146.816406 111.925781 144.128906 112.636719 C 129.636719 116.476562 122.535156 114.113281 114.25 109.777344 C 119.699219 110.011719 126.328125 109.5625 133.8125 108.324219 C 144.71875 106.53125 157.878906 102.589844 166.90625 94.015625 Z M 166.90625 94.015625 " fill-opacity="1" fill-rule="nonzero"/><path fill="#fc357b" d="M 166.347656 93.179688 C 167.058594 94.425781 167.992188 96.246094 167.527344 98.203125 C 166.050781 104.410156 146.257812 111.089844 143.570312 111.800781 C 129.078125 115.644531 121.976562 113.28125 113.691406 108.945312 C 119.140625 109.175781 125.769531 108.726562 133.253906 107.488281 C 144.160156 105.695312 157.324219 101.753906 166.347656 93.179688 Z M 166.347656 93.179688 " fill-opacity="1" fill-rule="nonzero"/><path fill="#c69297" d="M 178.667969 63.34375 C 178.667969 71.121094 176.816406 78.46875 173.53125 84.960938 C 173.53125 84.964844 173.527344 84.964844 173.527344 84.96875 C 168.148438 95.589844 158.933594 103.941406 147.707031 108.207031 C 147.703125 108.210938 147.691406 108.210938 147.6875 108.210938 C 142.390625 110.222656 136.648438 111.320312 130.644531 111.320312 C 105.003906 111.320312 84.058594 91.238281 82.695312 65.957031 C 82.648438 65.09375 82.628906 64.21875 82.628906 63.34375 C 82.628906 62.191406 82.667969 61.050781 82.746094 59.921875 C 84.503906 35.019531 105.277344 15.367188 130.644531 15.367188 C 157.167969 15.367188 178.667969 36.84375 178.667969 63.34375 Z M 178.667969 63.34375 " fill-opacity="1" fill-rule="nonzero"/><g clip-path="url(#c43545d6c4)"><path fill="#f9e6ce" d="M 177.832031 62.785156 C 177.832031 70.5625 175.980469 77.910156 172.695312 84.402344 C 172.695312 84.40625 172.691406 84.40625 172.691406 84.410156 C 167.3125 95.03125 158.097656 103.382812 146.871094 107.648438 C 146.863281 107.652344 146.855469 107.652344 146.851562 107.652344 C 141.554688 109.664062 135.8125 110.761719 129.808594 110.761719 C 104.167969 110.761719 83.222656 90.679688 81.859375 65.398438 C 81.8125 64.535156 81.792969 63.660156 81.792969 62.785156 C 81.792969 61.632812 81.832031 60.492188 81.910156 59.363281 C 82.445312 51.828125 84.714844 44.777344 88.328125 38.597656 C 96.65625 24.363281 112.113281 14.808594 129.808594 14.808594 C 133.6875 14.808594 137.464844 15.265625 141.074219 16.136719 C 162.164062 21.199219 177.832031 40.164062 177.832031 62.785156 Z M 177.832031 62.785156 " fill-opacity="1" fill-rule="nonzero"/></g><path fill="#dfbeb5" d="M 174.484375 72.328125 C 174.484375 76.515625 173.863281 80.570312 172.695312 84.40625 C 172.695312 84.410156 172.691406 84.410156 172.691406 84.414062 C 167.3125 95.035156 158.097656 103.386719 146.871094 107.652344 C 162.054688 100.511719 172.53125 85.382812 172.53125 67.871094 C 172.53125 63.085938 171.75 58.476562 170.300781 54.15625 C 172.992188 59.699219 174.484375 65.851562 174.484375 72.328125 Z M 174.484375 72.328125 " fill-opacity="1" fill-rule="nonzero"/><path fill="#033d75" d="M 170.582031 54.15625 C 172.027344 58.472656 172.8125 63.082031 172.8125 67.871094 C 172.8125 85.382812 162.339844 100.511719 147.152344 107.652344 C 147.148438 107.65625 147.136719 107.65625 147.132812 107.65625 C 141.179688 110.457031 134.5 112.023438 127.441406 112.023438 C 102.386719 112.023438 82.074219 92.257812 82.074219 67.871094 C 82.074219 67.046875 82.097656 66.222656 82.144531 65.40625 C 82.367188 61.5 83.109375 57.730469 84.304688 54.164062 C 84.304688 54.15625 84.308594 54.15625 84.308594 54.15625 C 91.730469 38.835938 108.257812 28.179688 127.449219 28.179688 C 146.636719 28.179688 163.160156 38.835938 170.582031 54.15625 C 170.578125 54.152344 170.582031 54.152344 170.582031 54.15625 Z M 170.582031 54.15625 " fill-opacity="1" fill-rule="nonzero"/><path fill="#22457c" d="M 162.492188 56.113281 C 163.757812 59.902344 164.445312 63.941406 164.445312 68.144531 C 164.445312 83.503906 155.257812 96.769531 141.9375 103.035156 C 141.933594 103.035156 141.925781 103.039062 141.921875 103.039062 C 136.703125 105.492188 130.84375 106.867188 124.652344 106.867188 C 102.675781 106.867188 84.859375 89.53125 84.859375 68.144531 C 84.859375 67.417969 84.878906 66.695312 84.917969 65.980469 C 85.113281 62.550781 85.765625 59.25 86.8125 56.113281 C 93.320312 42.675781 107.820312 33.332031 124.648438 33.332031 C 141.476562 33.332031 155.980469 42.675781 162.492188 56.113281 C 162.488281 56.113281 162.492188 56.113281 162.492188 56.113281 Z M 162.492188 56.113281 " fill-opacity="1" fill-rule="nonzero"/><path fill="#dfbeb5" d="M 170.300781 54.152344 C 162.878906 38.832031 146.351562 28.175781 127.160156 28.175781 C 112.238281 28.175781 98.925781 34.617188 90.257812 44.6875 C 87.386719 47.671875 84.839844 50.890625 82.628906 54.152344 C 88.648438 36.480469 106.003906 23.714844 126.464844 23.714844 C 146.925781 23.722656 164.277344 36.488281 170.300781 54.152344 Z M 170.300781 54.152344 " fill-opacity="1" fill-rule="nonzero"/><path fill="#c69297" d="M 176.667969 65.683594 C 176.308594 65.769531 175.941406 65.832031 175.574219 65.859375 C 170.792969 66.246094 165.867188 61.636719 164.222656 54.976562 C 162.453125 47.808594 165.148438 40.976562 170.25 39.71875 C 170.984375 39.539062 171.71875 39.484375 172.457031 39.542969 C 176.867188 39.882812 181.175781 44.277344 182.695312 50.425781 C 184.464844 57.59375 181.769531 64.425781 176.667969 65.683594 Z M 176.667969 65.683594 " fill-opacity="1" fill-rule="nonzero"/><path fill="#dfbeb5" d="M 176.667969 65.683594 C 176.308594 65.769531 175.941406 65.832031 175.574219 65.859375 C 171.164062 65.519531 166.855469 61.125 165.335938 54.976562 C 163.566406 47.808594 166.261719 40.976562 171.363281 39.71875 C 171.726562 39.632812 172.089844 39.570312 172.457031 39.542969 C 176.867188 39.882812 181.175781 44.277344 182.695312 50.425781 C 184.464844 57.59375 181.769531 64.425781 176.667969 65.683594 Z M 176.667969 65.683594 " fill-opacity="1" fill-rule="nonzero"/><path fill="#f9e6ce" d="M 182.644531 50.347656 C 182.824219 51.074219 182.957031 51.800781 183.042969 52.535156 C 183.132812 53.269531 183.171875 53.992188 183.160156 54.707031 C 183.152344 55.417969 183.09375 56.109375 182.988281 56.773438 C 182.886719 57.4375 182.734375 58.066406 182.539062 58.660156 C 182.339844 59.253906 182.101562 59.796875 181.824219 60.292969 C 181.542969 60.792969 181.226562 61.230469 180.871094 61.613281 C 180.519531 61.996094 180.136719 62.3125 179.722656 62.5625 C 179.308594 62.816406 178.875 62.996094 178.417969 63.109375 C 177.960938 63.222656 177.488281 63.265625 177.003906 63.234375 C 176.523438 63.203125 176.035156 63.101562 175.542969 62.929688 C 175.054688 62.753906 174.570312 62.511719 174.089844 62.203125 C 173.609375 61.894531 173.144531 61.523438 172.695312 61.089844 C 172.246094 60.660156 171.816406 60.171875 171.414062 59.632812 C 171.011719 59.089844 170.640625 58.507812 170.300781 57.878906 C 169.957031 57.253906 169.65625 56.597656 169.390625 55.90625 C 169.125 55.21875 168.902344 54.511719 168.722656 53.785156 C 168.542969 53.058594 168.410156 52.332031 168.324219 51.597656 C 168.238281 50.863281 168.199219 50.140625 168.207031 49.429688 C 168.21875 48.714844 168.273438 48.023438 168.378906 47.359375 C 168.484375 46.695312 168.636719 46.066406 168.832031 45.472656 C 169.027344 44.878906 169.265625 44.335938 169.546875 43.839844 C 169.828125 43.339844 170.144531 42.902344 170.496094 42.519531 C 170.851562 42.140625 171.234375 41.820312 171.648438 41.570312 C 172.0625 41.316406 172.496094 41.136719 172.953125 41.023438 C 173.410156 40.910156 173.878906 40.867188 174.363281 40.898438 C 174.847656 40.929688 175.335938 41.03125 175.824219 41.207031 C 176.316406 41.378906 176.800781 41.621094 177.28125 41.929688 C 177.761719 42.238281 178.226562 42.609375 178.675781 43.042969 C 179.125 43.476562 179.550781 43.960938 179.953125 44.5 C 180.359375 45.042969 180.730469 45.625 181.070312 46.253906 C 181.410156 46.878906 181.714844 47.535156 181.980469 48.226562 C 182.242188 48.914062 182.464844 49.621094 182.644531 50.347656 Z M 182.644531 50.347656 " fill-opacity="1" fill-rule="nonzero"/><path fill="#dfbeb5" d="M 179.480469 51.128906 C 179.578125 51.523438 179.648438 51.921875 179.695312 52.320312 C 179.746094 52.722656 179.765625 53.117188 179.761719 53.503906 C 179.753906 53.894531 179.722656 54.269531 179.667969 54.632812 C 179.609375 54.996094 179.527344 55.335938 179.421875 55.660156 C 179.3125 55.984375 179.183594 56.28125 179.03125 56.550781 C 178.878906 56.820312 178.703125 57.0625 178.511719 57.269531 C 178.320312 57.476562 178.109375 57.648438 177.886719 57.785156 C 177.660156 57.925781 177.421875 58.023438 177.171875 58.085938 C 176.925781 58.148438 176.667969 58.167969 176.40625 58.152344 C 176.140625 58.136719 175.875 58.082031 175.609375 57.984375 C 175.339844 57.890625 175.074219 57.761719 174.8125 57.589844 C 174.550781 57.421875 174.300781 57.222656 174.054688 56.984375 C 173.808594 56.75 173.574219 56.484375 173.355469 56.191406 C 173.136719 55.894531 172.933594 55.578125 172.75 55.234375 C 172.5625 54.894531 172.398438 54.535156 172.253906 54.160156 C 172.109375 53.785156 171.988281 53.398438 171.890625 53.003906 C 171.792969 52.609375 171.71875 52.210938 171.671875 51.8125 C 171.625 51.410156 171.605469 51.015625 171.609375 50.628906 C 171.613281 50.238281 171.644531 49.863281 171.703125 49.5 C 171.757812 49.140625 171.839844 48.796875 171.949219 48.472656 C 172.054688 48.148438 172.1875 47.851562 172.339844 47.582031 C 172.492188 47.3125 172.664062 47.074219 172.855469 46.863281 C 173.050781 46.65625 173.257812 46.484375 173.484375 46.347656 C 173.710938 46.207031 173.945312 46.109375 174.195312 46.046875 C 174.445312 45.984375 174.703125 45.964844 174.964844 45.980469 C 175.230469 45.996094 175.496094 46.054688 175.761719 46.148438 C 176.03125 46.242188 176.292969 46.371094 176.554688 46.542969 C 176.816406 46.710938 177.070312 46.910156 177.316406 47.148438 C 177.5625 47.382812 177.792969 47.648438 178.011719 47.945312 C 178.234375 48.238281 178.433594 48.554688 178.621094 48.898438 C 178.808594 49.238281 178.972656 49.597656 179.117188 49.972656 C 179.261719 50.347656 179.382812 50.734375 179.480469 51.128906 Z M 179.480469 51.128906 " fill-opacity="1" fill-rule="nonzero"/><path fill="#c69297" d="M 84.300781 50.460938 C 87.667969 43.011719 93.078125 36.488281 99.722656 31.648438 L 100.992188 30.765625 L 101.308594 30.542969 L 101.632812 30.339844 L 102.285156 29.929688 L 102.945312 29.527344 C 103.164062 29.386719 103.386719 29.257812 103.613281 29.140625 L 104.96875 28.402344 C 105.414062 28.144531 105.890625 27.941406 106.355469 27.722656 C 106.820312 27.503906 107.285156 27.277344 107.753906 27.066406 L 109.191406 26.496094 L 109.90625 26.207031 C 110.144531 26.109375 110.390625 26.039062 110.640625 25.957031 C 114.535156 24.601562 118.609375 23.800781 122.722656 23.53125 C 126.835938 23.285156 130.964844 23.574219 135.019531 24.234375 L 136.539062 24.503906 C 137.042969 24.589844 137.550781 24.671875 138.058594 24.792969 C 139.066406 25.027344 140.066406 25.332031 141.03125 25.699219 C 142.957031 26.425781 144.835938 27.265625 146.664062 28.199219 C 148.488281 29.136719 150.273438 30.160156 152 31.265625 C 152.433594 31.546875 152.851562 31.839844 153.277344 32.125 C 153.492188 32.269531 153.703125 32.40625 153.910156 32.5625 L 154.53125 33.015625 C 154.941406 33.324219 155.359375 33.613281 155.761719 33.9375 L 156.964844 34.898438 C 157.371094 35.214844 157.742188 35.570312 158.128906 35.910156 L 158.699219 36.417969 C 158.894531 36.585938 159.082031 36.757812 159.265625 36.941406 C 159.996094 37.660156 160.738281 38.367188 161.417969 39.136719 C 161.757812 39.519531 162.121094 39.882812 162.441406 40.277344 L 163.410156 41.46875 C 163.570312 41.671875 163.738281 41.859375 163.886719 42.074219 L 164.332031 42.703125 L 165.21875 43.953125 C 162.792969 40.664062 159.929688 37.722656 156.710938 35.226562 L 155.503906 34.296875 C 155.105469 33.984375 154.679688 33.703125 154.261719 33.40625 L 153.640625 32.964844 C 153.429688 32.824219 153.214844 32.691406 153 32.546875 C 152.574219 32.269531 152.148438 31.988281 151.71875 31.71875 C 149.988281 30.652344 148.207031 29.671875 146.378906 28.785156 C 144.554688 27.894531 142.683594 27.09375 140.785156 26.382812 C 139.839844 26.03125 138.875 25.742188 137.894531 25.519531 C 137.410156 25.402344 136.90625 25.328125 136.40625 25.242188 L 134.90625 24.988281 C 130.898438 24.355469 126.824219 24.101562 122.78125 24.363281 C 118.738281 24.601562 114.726562 25.363281 110.898438 26.671875 C 107.050781 27.953125 103.449219 29.894531 100.105469 32.175781 C 96.773438 34.496094 93.761719 37.261719 91.109375 40.34375 C 88.445312 43.417969 86.105469 46.796875 84.300781 50.460938 Z M 84.300781 50.460938 " fill-opacity="1" fill-rule="nonzero"/><g clip-path="url(#595af8ecae)"><path fill="#fcf0e3" d="M 141.082031 16.136719 C 114.488281 15.25 97.328125 28.601562 88.332031 38.601562 C 96.660156 24.367188 112.117188 14.8125 129.8125 14.8125 C 133.691406 14.808594 137.464844 15.265625 141.082031 16.136719 Z M 141.082031 16.136719 " fill-opacity="1" fill-rule="nonzero"/></g><path fill="#ffffff" d="M 159.570312 60.070312 C 159.570312 60.601562 159.519531 61.125 159.417969 61.648438 C 159.3125 62.167969 159.160156 62.671875 158.957031 63.160156 C 158.753906 63.652344 158.503906 64.117188 158.210938 64.558594 C 157.914062 65 157.578125 65.40625 157.203125 65.78125 C 156.828125 66.15625 156.421875 66.492188 155.980469 66.789062 C 155.539062 67.082031 155.070312 67.332031 154.582031 67.535156 C 154.089844 67.738281 153.585938 67.890625 153.0625 67.992188 C 152.542969 68.097656 152.015625 68.148438 151.488281 68.148438 C 150.957031 68.148438 150.429688 68.097656 149.910156 67.992188 C 149.386719 67.890625 148.882812 67.738281 148.390625 67.535156 C 147.902344 67.332031 147.4375 67.082031 146.996094 66.789062 C 146.554688 66.492188 146.144531 66.15625 145.769531 65.78125 C 145.394531 65.40625 145.058594 65 144.765625 64.558594 C 144.46875 64.117188 144.21875 63.652344 144.015625 63.160156 C 143.8125 62.671875 143.660156 62.167969 143.554688 61.648438 C 143.453125 61.125 143.402344 60.601562 143.402344 60.070312 C 143.402344 59.539062 143.453125 59.015625 143.554688 58.496094 C 143.660156 57.972656 143.8125 57.46875 144.015625 56.980469 C 144.21875 56.488281 144.46875 56.023438 144.765625 55.582031 C 145.058594 55.140625 145.394531 54.734375 145.769531 54.359375 C 146.144531 53.984375 146.554688 53.648438 146.996094 53.351562 C 147.4375 53.058594 147.902344 52.808594 148.390625 52.605469 C 148.882812 52.402344 149.386719 52.25 149.910156 52.148438 C 150.429688 52.042969 150.957031 51.992188 151.488281 51.992188 C 152.015625 51.992188 152.542969 52.042969 153.0625 52.148438 C 153.585938 52.25 154.089844 52.402344 154.582031 52.605469 C 155.070312 52.808594 155.539062 53.058594 155.980469 53.351562 C 156.421875 53.648438 156.828125 53.984375 157.203125 54.359375 C 157.578125 54.734375 157.914062 55.140625 158.210938 55.582031 C 158.503906 56.023438 158.753906 56.488281 158.957031 56.980469 C 159.160156 57.46875 159.3125 57.972656 159.417969 58.496094 C 159.519531 59.015625 159.570312 59.539062 159.570312 60.070312 Z M 159.570312 60.070312 " fill-opacity="0.8" fill-rule="nonzero"/><path fill="#ffffff" d="M 159.566406 75.390625 C 159.566406 75.683594 159.539062 75.972656 159.480469 76.261719 C 159.425781 76.546875 159.339844 76.828125 159.226562 77.097656 C 159.117188 77.367188 158.976562 77.625 158.816406 77.867188 C 158.652344 78.109375 158.46875 78.335938 158.261719 78.542969 C 158.054688 78.75 157.828125 78.933594 157.585938 79.097656 C 157.34375 79.257812 157.085938 79.394531 156.816406 79.507812 C 156.542969 79.621094 156.265625 79.703125 155.976562 79.761719 C 155.691406 79.820312 155.402344 79.847656 155.109375 79.847656 C 154.816406 79.847656 154.527344 79.820312 154.238281 79.761719 C 153.953125 79.703125 153.671875 79.621094 153.402344 79.507812 C 153.132812 79.394531 152.875 79.257812 152.632812 79.097656 C 152.386719 78.933594 152.164062 78.75 151.957031 78.542969 C 151.75 78.335938 151.5625 78.109375 151.402344 77.867188 C 151.238281 77.625 151.101562 77.367188 150.988281 77.097656 C 150.878906 76.828125 150.792969 76.546875 150.734375 76.261719 C 150.679688 75.972656 150.648438 75.683594 150.648438 75.390625 C 150.648438 75.101562 150.679688 74.808594 150.734375 74.523438 C 150.792969 74.238281 150.878906 73.957031 150.988281 73.6875 C 151.101562 73.417969 151.238281 73.160156 151.402344 72.917969 C 151.5625 72.675781 151.75 72.449219 151.957031 72.242188 C 152.164062 72.035156 152.386719 71.851562 152.632812 71.6875 C 152.875 71.527344 153.132812 71.390625 153.402344 71.277344 C 153.671875 71.164062 153.953125 71.082031 154.238281 71.023438 C 154.527344 70.964844 154.816406 70.9375 155.109375 70.9375 C 155.402344 70.9375 155.691406 70.964844 155.976562 71.023438 C 156.265625 71.082031 156.542969 71.164062 156.816406 71.277344 C 157.085938 71.390625 157.34375 71.527344 157.585938 71.6875 C 157.828125 71.851562 158.054688 72.035156 158.261719 72.242188 C 158.46875 72.449219 158.652344 72.675781 158.816406 72.917969 C 158.976562 73.160156 159.117188 73.417969 159.226562 73.6875 C 159.339844 73.957031 159.425781 74.238281 159.480469 74.523438 C 159.539062 74.808594 159.566406 75.101562 159.566406 75.390625 Z M 159.566406 75.390625 " fill-opacity="0.8" fill-rule="nonzero"/><path fill="#ffffff" d="M 109.871094 44.847656 C 103.445312 42.953125 95.011719 46.714844 90.851562 53.246094 C 86.402344 60.230469 86.839844 70.375 91.929688 75.089844 C 92.703125 75.808594 95.003906 77.9375 97.394531 77.414062 C 101.152344 76.597656 100.308594 70.28125 105.066406 62.15625 C 109.796875 54.082031 115.746094 51.597656 114.578125 48.121094 C 113.878906 46.027344 111.140625 45.21875 109.871094 44.847656 Z M 109.871094 44.847656 " fill-opacity="0.8" fill-rule="nonzero"/><path fill="#fc357b" d="M 161.035156 151.933594 C 160.832031 151.9375 160.632812 151.921875 160.429688 151.878906 C 158.972656 151.582031 158.03125 150.164062 158.328125 148.703125 C 159.113281 144.824219 158.371094 141.515625 156.125 138.875 C 154.355469 136.792969 152.269531 135.863281 152.25 135.855469 C 150.882812 135.277344 150.25 133.699219 150.824219 132.328125 C 151.398438 130.960938 152.980469 130.316406 154.347656 130.894531 C 154.660156 131.027344 157.484375 132.273438 160.023438 135.167969 C 162.4375 137.917969 165.019531 142.6875 163.589844 149.777344 C 163.335938 151.027344 162.257812 151.898438 161.035156 151.933594 Z M 161.035156 151.933594 " fill-opacity="1" fill-rule="nonzero"/><path fill="#fc357b" d="M 166.847656 125.519531 C 166.847656 125.519531 182.867188 122.53125 185.773438 132.492188 C 187.554688 138.59375 181.589844 140.847656 181.589844 140.847656 C 181.589844 140.847656 186.050781 128.316406 166.09375 127.296875 C 166.097656 127.296875 165.066406 125.65625 166.847656 125.519531 Z M 166.847656 125.519531 " fill-opacity="1" fill-rule="nonzero"/><path fill="#db4f64" d="M 130.433594 160.253906 C 130.339844 160.304688 130.257812 160.347656 130.179688 160.386719 L 120.222656 126.734375 L 120.492188 126.644531 Z M 130.433594 160.253906 " fill-opacity="1" fill-rule="nonzero"/><path fill="#db4f64" d="M 127.550781 159.785156 L 127.226562 159.65625 L 117.8125 126.734375 L 118.144531 126.878906 Z M 127.550781 159.785156 " fill-opacity="1" fill-rule="nonzero"/><path fill="#005aa2" d="M 106.046875 146.695312 C 103.222656 147.363281 100.09375 144.257812 99.160156 140.527344 C 98.527344 138 98.886719 135.183594 101.023438 133.046875 C 101.023438 133.046875 105.132812 132.460938 107.449219 134.402344 C 107.898438 134.773438 108.277344 135.246094 108.550781 135.835938 C 110.230469 139.457031 110.78125 145.585938 106.046875 146.695312 Z M 106.046875 146.695312 " fill-opacity="1" fill-rule="nonzero"/><path fill="#1e8fc6" d="M 104.09375 142.800781 C 102.371094 143.207031 100.539062 142.210938 99.160156 140.53125 C 98.527344 138.003906 98.886719 135.1875 101.023438 133.050781 C 101.023438 133.050781 105.132812 132.46875 107.449219 134.40625 C 108.285156 137.851562 107.863281 141.914062 104.09375 142.800781 Z M 104.09375 142.800781 " fill-opacity="1" fill-rule="nonzero"/><path fill="#dfbeb5" d="M 160.683594 155.894531 C 158.097656 155.28125 155.464844 154.945312 152.832031 154.789062 C 152.175781 154.757812 151.515625 154.734375 150.863281 154.734375 C 150.203125 154.726562 149.550781 154.730469 148.894531 154.761719 C 147.585938 154.804688 146.28125 154.929688 144.996094 155.113281 C 143.707031 155.289062 142.429688 155.546875 141.179688 155.886719 C 139.933594 156.230469 138.710938 156.648438 137.53125 157.148438 C 136.351562 157.652344 135.207031 158.242188 134.128906 158.921875 C 133.589844 159.265625 133.058594 159.625 132.550781 160.011719 C 132.035156 160.382812 131.546875 160.792969 131.054688 161.207031 L 130.804688 161.367188 C 130.804688 161.367188 130.75 161.390625 130.71875 161.410156 L 130.601562 161.480469 C 130.515625 161.535156 130.433594 161.582031 130.347656 161.644531 C 130.179688 161.757812 130.011719 161.886719 129.851562 162.019531 C 129.53125 162.296875 129.226562 162.597656 128.949219 162.929688 C 128.386719 163.589844 127.914062 164.34375 127.515625 165.136719 C 126.730469 166.742188 126.253906 168.523438 125.984375 170.34375 C 125.722656 172.175781 125.6875 174.042969 125.742188 175.910156 L 125.816406 177.320312 L 125.9375 178.730469 L 126.105469 180.140625 L 126.300781 181.558594 C 126.566406 183.453125 126.839844 185.34375 127.167969 187.222656 C 127.492188 189.109375 127.84375 190.976562 128.210938 192.875 C 128.386719 193.824219 128.558594 194.789062 128.621094 195.777344 C 128.695312 196.75 128.652344 197.726562 128.515625 198.675781 C 128.421875 198.398438 128.347656 198.246094 128.347656 198.246094 C 128.347656 198.527344 128.175781 198.914062 127.855469 199.371094 C 127.875 199.140625 127.886719 198.902344 127.894531 198.667969 C 127.941406 197.71875 127.914062 196.792969 127.769531 195.867188 C 127.699219 195.40625 127.613281 194.945312 127.503906 194.488281 C 127.402344 194.027344 127.285156 193.566406 127.167969 193.101562 C 126.691406 191.25 126.179688 189.378906 125.78125 187.492188 C 125.371094 185.605469 124.984375 183.707031 124.652344 181.808594 L 124.414062 180.382812 L 124.203125 178.933594 L 124.035156 177.472656 L 123.914062 176.007812 C 123.785156 174.042969 123.839844 172.058594 124.089844 170.082031 C 124.375 168.109375 124.84375 166.117188 125.777344 164.277344 C 126.242188 163.363281 126.804688 162.480469 127.492188 161.683594 C 127.835938 161.28125 128.214844 160.90625 128.632812 160.566406 C 128.839844 160.398438 129.054688 160.230469 129.285156 160.074219 C 129.398438 159.996094 129.515625 159.925781 129.640625 159.851562 L 129.832031 159.746094 C 129.863281 159.730469 129.894531 159.714844 129.921875 159.699219 C 131.992188 157.941406 134.378906 156.574219 136.890625 155.585938 C 139.441406 154.574219 142.144531 154.027344 144.835938 153.773438 C 146.1875 153.652344 147.542969 153.628906 148.890625 153.664062 C 149.5625 153.683594 150.234375 153.71875 150.902344 153.773438 C 151.570312 153.832031 152.238281 153.90625 152.90625 154 C 154.238281 154.175781 155.554688 154.425781 156.855469 154.742188 C 158.15625 155.039062 159.441406 155.410156 160.683594 155.894531 Z M 160.683594 155.894531 " fill-opacity="1" fill-rule="nonzero"/><path fill="#dfbeb5" d="M 142.84375 208.257812 C 141.367188 208.796875 139.769531 208.945312 138.195312 208.875 C 136.617188 208.789062 135.035156 208.449219 133.542969 207.835938 C 132.808594 207.523438 132.085938 207.160156 131.410156 206.71875 C 130.742188 206.273438 130.105469 205.78125 129.535156 205.214844 C 129.054688 204.746094 128.617188 204.230469 128.230469 203.6875 C 128.367188 203.371094 128.472656 203.066406 128.558594 202.769531 C 129.152344 203.289062 129.753906 203.765625 130.382812 204.207031 C 130.980469 204.628906 131.601562 205.007812 132.226562 205.359375 C 132.863281 205.707031 133.515625 206.015625 134.183594 206.292969 C 135.519531 206.847656 136.917969 207.257812 138.363281 207.574219 C 139.808594 207.886719 141.292969 208.109375 142.84375 208.257812 Z M 142.84375 208.257812 " fill-opacity="1" fill-rule="nonzero"/><path fill="#dfbeb5" d="M 119.84375 193.914062 C 118.375 194.066406 116.898438 193.9375 115.453125 193.6875 C 114.007812 193.429688 112.589844 193.019531 111.222656 192.476562 C 109.851562 191.9375 108.546875 191.214844 107.332031 190.363281 C 106.835938 190.003906 106.347656 189.605469 105.898438 189.171875 C 106.179688 188.816406 106.273438 188.53125 106.304688 188.359375 C 106.867188 188.667969 107.433594 188.964844 108.011719 189.238281 C 109.277344 189.835938 110.546875 190.40625 111.847656 190.921875 C 113.148438 191.4375 114.460938 191.9375 115.789062 192.414062 C 117.125 192.90625 118.472656 193.378906 119.84375 193.914062 Z M 119.84375 193.914062 " fill-opacity="1" fill-rule="nonzero"/><path fill="#dfbeb5" d="M 177.597656 162.820312 C 173.03125 171.933594 164.386719 175.589844 159.152344 177.757812 C 147.722656 182.492188 151.902344 192.242188 153.4375 204.355469 C 153.945312 208.386719 143.664062 221.042969 133.371094 223.011719 C 139.03125 219.984375 147.691406 214.714844 149.535156 209.925781 C 153.871094 198.667969 145.207031 189.484375 150.652344 180.960938 C 153.308594 176.800781 156.367188 178.410156 167.375 170.933594 C 171.988281 167.796875 175.445312 164.808594 177.597656 162.820312 Z M 177.597656 162.820312 " fill-opacity="1" fill-rule="nonzero"/><path fill="#f18705" d="M 157.042969 117.628906 C 157.042969 117.949219 156.980469 118.257812 156.859375 118.550781 C 156.738281 118.847656 156.5625 119.105469 156.335938 119.332031 C 156.113281 119.558594 155.851562 119.734375 155.554688 119.855469 C 155.261719 119.976562 154.953125 120.039062 154.632812 120.039062 C 154.3125 120.039062 154.007812 119.976562 153.710938 119.855469 C 153.417969 119.734375 153.15625 119.558594 152.929688 119.332031 C 152.703125 119.105469 152.53125 118.847656 152.40625 118.550781 C 152.285156 118.257812 152.222656 117.949219 152.222656 117.628906 C 152.222656 117.3125 152.285156 117.003906 152.40625 116.707031 C 152.53125 116.414062 152.703125 116.152344 152.929688 115.925781 C 153.15625 115.703125 153.417969 115.527344 153.710938 115.40625 C 154.007812 115.285156 154.3125 115.222656 154.632812 115.222656 C 154.953125 115.222656 155.261719 115.285156 155.554688 115.40625 C 155.851562 115.527344 156.113281 115.703125 156.335938 115.925781 C 156.5625 116.152344 156.738281 116.414062 156.859375 116.707031 C 156.980469 117.003906 157.042969 117.3125 157.042969 117.628906 Z M 157.042969 117.628906 " fill-opacity="1" fill-rule="nonzero"/><path fill="#f5a501" d="M 156.378906 117.414062 C 156.378906 117.671875 156.332031 117.925781 156.230469 118.164062 C 156.128906 118.40625 155.988281 118.621094 155.804688 118.804688 C 155.617188 118.988281 155.40625 119.128906 155.164062 119.230469 C 154.921875 119.332031 154.671875 119.378906 154.410156 119.378906 C 154.148438 119.378906 153.898438 119.332031 153.65625 119.230469 C 153.417969 119.128906 153.203125 118.988281 153.019531 118.804688 C 152.832031 118.621094 152.691406 118.40625 152.589844 118.164062 C 152.492188 117.925781 152.441406 117.671875 152.441406 117.414062 C 152.441406 117.152344 152.492188 116.902344 152.589844 116.660156 C 152.691406 116.417969 152.832031 116.207031 153.019531 116.019531 C 153.203125 115.835938 153.417969 115.695312 153.65625 115.59375 C 153.898438 115.496094 154.148438 115.445312 154.410156 115.445312 C 154.671875 115.445312 154.921875 115.496094 155.164062 115.59375 C 155.40625 115.695312 155.617188 115.835938 155.804688 116.019531 C 155.988281 116.207031 156.128906 116.417969 156.230469 116.660156 C 156.332031 116.902344 156.378906 117.152344 156.378906 117.414062 Z M 156.378906 117.414062 " fill-opacity="1" fill-rule="nonzero"/><path fill="#f9bd00" d="M 155.945312 117.195312 C 155.945312 117.425781 155.902344 117.652344 155.8125 117.863281 C 155.722656 118.078125 155.597656 118.269531 155.433594 118.433594 C 155.269531 118.597656 155.078125 118.722656 154.863281 118.8125 C 154.648438 118.902344 154.425781 118.945312 154.191406 118.945312 C 153.960938 118.945312 153.738281 118.902344 153.523438 118.8125 C 153.308594 118.722656 153.117188 118.597656 152.953125 118.433594 C 152.789062 118.269531 152.664062 118.078125 152.574219 117.863281 C 152.484375 117.652344 152.441406 117.425781 152.441406 117.195312 C 152.441406 116.964844 152.484375 116.738281 152.574219 116.523438 C 152.664062 116.3125 152.789062 116.121094 152.953125 115.957031 C 153.117188 115.792969 153.308594 115.667969 153.523438 115.578125 C 153.738281 115.488281 153.960938 115.445312 154.191406 115.445312 C 154.425781 115.445312 154.648438 115.488281 154.863281 115.578125 C 155.078125 115.667969 155.269531 115.792969 155.433594 115.957031 C 155.597656 116.121094 155.722656 116.3125 155.8125 116.523438 C 155.902344 116.738281 155.945312 116.964844 155.945312 117.195312 Z M 155.945312 117.195312 " fill-opacity="1" fill-rule="nonzero"/><path fill="#f18705" d="M 151.566406 118.945312 C 151.566406 119.265625 151.503906 119.570312 151.382812 119.867188 C 151.261719 120.160156 151.085938 120.421875 150.859375 120.648438 C 150.632812 120.875 150.375 121.046875 150.078125 121.167969 C 149.78125 121.292969 149.476562 121.351562 149.15625 121.351562 C 148.835938 121.351562 148.527344 121.292969 148.234375 121.167969 C 147.9375 121.046875 147.679688 120.875 147.453125 120.648438 C 147.226562 120.421875 147.050781 120.160156 146.929688 119.867188 C 146.808594 119.570312 146.746094 119.265625 146.746094 118.945312 C 146.746094 118.625 146.808594 118.320312 146.929688 118.023438 C 147.050781 117.730469 147.226562 117.46875 147.453125 117.242188 C 147.679688 117.015625 147.9375 116.84375 148.234375 116.722656 C 148.527344 116.597656 148.835938 116.539062 149.15625 116.539062 C 149.476562 116.539062 149.78125 116.597656 150.078125 116.722656 C 150.375 116.84375 150.632812 117.015625 150.859375 117.242188 C 151.085938 117.46875 151.261719 117.730469 151.382812 118.023438 C 151.503906 118.320312 151.566406 118.625 151.566406 118.945312 Z M 151.566406 118.945312 " fill-opacity="1" fill-rule="nonzero"/><path fill="#f5a501" d="M 150.90625 118.722656 C 150.90625 118.984375 150.859375 119.234375 150.757812 119.476562 C 150.65625 119.71875 150.515625 119.929688 150.332031 120.113281 C 150.144531 120.300781 149.933594 120.441406 149.691406 120.539062 C 149.449219 120.640625 149.199219 120.691406 148.9375 120.691406 C 148.675781 120.691406 148.425781 120.640625 148.183594 120.539062 C 147.941406 120.441406 147.730469 120.300781 147.546875 120.113281 C 147.359375 119.929688 147.21875 119.71875 147.117188 119.476562 C 147.019531 119.234375 146.96875 118.984375 146.96875 118.722656 C 146.96875 118.460938 147.019531 118.210938 147.117188 117.96875 C 147.21875 117.730469 147.359375 117.515625 147.546875 117.332031 C 147.730469 117.148438 147.941406 117.003906 148.183594 116.90625 C 148.425781 116.804688 148.675781 116.753906 148.9375 116.753906 C 149.199219 116.753906 149.449219 116.804688 149.691406 116.90625 C 149.933594 117.003906 150.144531 117.148438 150.332031 117.332031 C 150.515625 117.515625 150.65625 117.730469 150.757812 117.96875 C 150.859375 118.210938 150.90625 118.460938 150.90625 118.722656 Z M 150.90625 118.722656 " fill-opacity="1" fill-rule="nonzero"/><path fill="#f9bd00" d="M 150.46875 118.503906 C 150.46875 118.738281 150.421875 118.960938 150.332031 119.175781 C 150.246094 119.390625 150.117188 119.578125 149.953125 119.742188 C 149.789062 119.90625 149.601562 120.035156 149.386719 120.121094 C 149.171875 120.210938 148.949219 120.253906 148.714844 120.253906 C 148.484375 120.253906 148.261719 120.210938 148.046875 120.121094 C 147.832031 120.035156 147.640625 119.90625 147.476562 119.742188 C 147.3125 119.578125 147.1875 119.390625 147.097656 119.175781 C 147.007812 118.960938 146.964844 118.738281 146.964844 118.503906 C 146.964844 118.273438 147.007812 118.050781 147.097656 117.835938 C 147.1875 117.621094 147.3125 117.433594 147.476562 117.269531 C 147.640625 117.105469 147.832031 116.976562 148.046875 116.886719 C 148.261719 116.800781 148.484375 116.753906 148.714844 116.753906 C 148.949219 116.753906 149.171875 116.800781 149.386719 116.886719 C 149.601562 116.976562 149.789062 117.105469 149.953125 117.269531 C 150.117188 117.433594 150.246094 117.621094 150.332031 117.835938 C 150.421875 118.050781 150.46875 118.273438 150.46875 118.503906 Z M 150.46875 118.503906 " fill-opacity="1" fill-rule="nonzero"/><path fill="#c69297" d="M 157.339844 154.777344 C 146.617188 152.34375 133.550781 158.632812 130.433594 160.253906 C 130.339844 160.304688 130.257812 160.347656 130.179688 160.386719 C 129.894531 160.535156 129.738281 160.625 129.738281 160.625 L 127.550781 159.777344 L 127.226562 159.652344 L 108.832031 152.546875 L 107.121094 147.53125 C 111.964844 148.3125 120.855469 149.59375 125.003906 149.199219 C 130.859375 148.640625 135.039062 141.121094 139.21875 133.042969 C 141.035156 129.53125 143.941406 127.203125 146.648438 125.6875 L 150.367188 135.546875 Z M 157.339844 154.777344 " fill-opacity="0.2" fill-rule="nonzero"/><path fill="#005aa2" d="M 158.375 149.960938 C 146.761719 155.664062 142.773438 150.636719 141.273438 145.574219 C 140.960938 144.527344 140.757812 143.472656 140.609375 142.519531 C 139.773438 136.945312 149.53125 135.558594 149.53125 135.558594 L 149.53125 135.28125 L 148.695312 131.101562 L 150.644531 132.214844 C 150.644531 132.214844 155.386719 134.925781 158.167969 138.710938 C 158.472656 139.132812 158.753906 139.566406 159.007812 140.011719 C 161.523438 144.472656 158.375 149.960938 158.375 149.960938 Z M 158.375 149.960938 " fill-opacity="1" fill-rule="nonzero"/><path fill="#1e8fc6" d="M 152.261719 148.136719 C 146.417969 149.910156 143.144531 148.25 141.273438 145.578125 C 140.960938 144.53125 140.757812 143.476562 140.609375 142.523438 C 139.773438 136.953125 149.53125 135.5625 149.53125 135.5625 L 149.53125 135.285156 L 148.695312 131.109375 L 150.644531 132.21875 C 150.644531 132.21875 155.386719 134.929688 158.167969 138.71875 C 158.171875 138.746094 158.175781 138.769531 158.179688 138.796875 C 158.898438 142.929688 156.28125 146.914062 152.261719 148.136719 Z M 152.261719 148.136719 " fill-opacity="1" fill-rule="nonzero"/><path fill="#f5a501" d="M 125.398438 177.058594 C 125.398438 177.894531 106.496094 164.527344 100.757812 170.375 C 100.757812 170.375 100.222656 169.390625 99.917969 167.832031 C 99.472656 165.59375 99.496094 162.171875 102.261719 158.839844 C 103.269531 157.625 104.859375 157.039062 106.417969 157.316406 C 111.132812 158.152344 121.648438 161.113281 125.007812 171.15625 C 125.007812 171.160156 125.007812 171.160156 125.007812 171.160156 C 125.109375 171.453125 125.195312 171.742188 125.28125 172.050781 C 125.28125 172.046875 125.398438 176.222656 125.398438 177.058594 Z M 125.398438 177.058594 " fill-opacity="1" fill-rule="nonzero"/><path fill="#f9bd00" d="M 125.121094 175.945312 C 125.121094 176.78125 106.21875 163.414062 100.480469 169.261719 C 100.480469 169.261719 100.195312 168.734375 99.921875 167.839844 C 99.824219 167.324219 99.742188 166.753906 99.71875 166.136719 C 99.628906 164.042969 100.128906 161.421875 102.265625 158.84375 C 103.277344 157.628906 104.863281 157.046875 106.421875 157.320312 C 109.679688 157.902344 115.710938 159.492188 120.230469 163.734375 C 122.246094 165.632812 123.976562 168.054688 125.007812 171.160156 C 125.007812 171.164062 125.007812 171.164062 125.007812 171.164062 C 125.035156 172.039062 125.121094 175.230469 125.121094 175.945312 Z M 125.121094 175.945312 " fill-opacity="1" fill-rule="nonzero"/><path fill="#f5a501" d="M 155.390625 181.519531 C 155.390625 181.519531 154.796875 181.6875 154.554688 182.632812 C 154.394531 183.253906 153.71875 183.695312 153.71875 184.023438 C 153.71875 184.859375 131.976562 171.492188 125.28125 177.339844 C 125.28125 177.339844 124.960938 176.722656 124.578125 175.738281 C 123.535156 173.039062 122.066406 167.574219 125.671875 164.5 C 127.125 163.261719 129.085938 162.796875 130.964844 163.105469 C 135.8125 163.917969 148.566406 168.21875 155.390625 181.519531 Z M 155.390625 181.519531 " fill-opacity="1" fill-rule="nonzero"/><path fill="#f9bd00" d="M 154.832031 180.542969 C 154.511719 181.5625 153.375 182.074219 152.402344 181.636719 C 146.136719 178.828125 130.496094 171.542969 124.578125 175.742188 C 124.351562 175.15625 124.101562 174.4375 123.894531 173.640625 C 123.136719 170.78125 122.851562 166.914062 125.671875 164.503906 C 127.125 163.265625 129.085938 162.800781 130.964844 163.113281 C 135.316406 163.839844 145.59375 166.59375 152.585938 176.773438 C 153.382812 177.929688 154.132812 179.183594 154.832031 180.542969 Z M 154.832031 180.542969 " fill-opacity="1" fill-rule="nonzero"/><path fill="#f7d300" d="M 119.703125 170.933594 C 116.917969 170.933594 106.042969 166.476562 102.421875 165.570312 C 101.089844 165.234375 100.25 165.574219 99.714844 166.132812 C 99.664062 165.03125 99.78125 163.777344 100.21875 162.46875 C 100.605469 161.292969 101.246094 160.0625 102.261719 158.839844 C 103.269531 157.625 104.859375 157.039062 106.417969 157.316406 C 109.148438 157.800781 113.835938 158.996094 117.9375 161.875 C 118.726562 162.429688 119.496094 163.042969 120.222656 163.730469 C 122.421875 167.394531 122.496094 170.933594 119.703125 170.933594 Z M 119.703125 170.933594 " fill-opacity="1" fill-rule="nonzero"/><path fill="#f4f400" d="M 116.636719 167.589844 C 113.371094 167.757812 111.382812 165.671875 108.550781 164.25 C 106.75 163.339844 104.058594 162.425781 100.214844 162.46875 C 100.597656 161.292969 101.242188 160.0625 102.257812 158.839844 C 103.265625 157.625 104.855469 157.039062 106.414062 157.316406 C 109.144531 157.800781 113.832031 158.996094 117.933594 161.875 C 119.296875 163.8125 119.660156 165.742188 118.863281 166.75 C 118.644531 167.039062 118.125 167.515625 116.636719 167.589844 Z M 116.636719 167.589844 " fill-opacity="1" fill-rule="nonzero"/><path fill="#f7d300" d="M 152.601562 178.453125 C 152.039062 179.566406 145.632812 176.503906 139.773438 174.550781 C 133.914062 172.597656 129.699219 172.324219 125.117188 173.441406 C 124.707031 173.539062 124.296875 173.601562 123.890625 173.636719 C 123.507812 172.195312 123.246094 170.492188 123.441406 168.863281 C 123.628906 167.25 124.265625 165.691406 125.667969 164.5 C 127.121094 163.261719 129.082031 162.796875 130.960938 163.105469 C 134.859375 163.757812 143.53125 166.039062 150.3125 173.84375 C 151.097656 174.746094 151.859375 175.71875 152.574219 176.773438 C 152.730469 177.46875 152.777344 178.101562 152.601562 178.453125 Z M 152.601562 178.453125 " fill-opacity="1" fill-rule="nonzero"/><path fill="#f4f400" d="M 150.320312 173.84375 C 148 173.351562 143.3125 171.273438 138.9375 169.816406 C 133.085938 167.867188 128.863281 167.585938 124.28125 168.703125 C 124 168.773438 123.722656 168.820312 123.441406 168.863281 C 123.628906 167.25 124.265625 165.691406 125.667969 164.5 C 127.121094 163.261719 129.082031 162.796875 130.960938 163.105469 C 134.867188 163.757812 143.535156 166.042969 150.320312 173.84375 Z M 150.320312 173.84375 " fill-opacity="1" fill-rule="nonzero"/><path fill="#dfbeb5" d="M 190.542969 100.621094 C 190.121094 100.769531 189.703125 100.914062 189.277344 101.050781 C 188.097656 101.433594 186.921875 101.808594 185.714844 102.15625 C 184.496094 102.492188 183.269531 102.816406 181.914062 103.046875 C 182.71875 101.914062 183.785156 101.074219 184.890625 100.351562 C 186.015625 99.636719 187.21875 99.070312 188.480469 98.65625 C 188.5625 98.625 188.648438 98.601562 188.730469 98.574219 C 189.425781 99.167969 190.039062 99.851562 190.542969 100.621094 Z M 190.542969 100.621094 " fill-opacity="1" fill-rule="nonzero"/></svg>