<svg xmlns="http://www.w3.org/2000/svg" xmlns:xlink="http://www.w3.org/1999/xlink" width="680" zoomAndPan="magnify" viewBox="0 0 510 254.999984" height="340" preserveAspectRatio="xMidYMid meet" version="1.0"><defs><g/></defs><g fill="#ffffff" fill-opacity="1"><g transform="translate(2.86079, 193.954207)"><g><path d="M 80.890625 0 L 72.9375 -26.09375 L 32.984375 -26.09375 L 25.03125 0 L 0 0 L 38.6875 -110.046875 L 67.09375 -110.046875 L 105.921875 0 Z M 67.390625 -45.578125 C 60.046875 -69.210938 55.910156 -82.578125 54.984375 -85.671875 C 54.054688 -88.773438 53.394531 -91.226562 53 -93.03125 C 51.351562 -86.632812 46.628906 -70.816406 38.828125 -45.578125 Z M 67.390625 -45.578125 "/></g></g></g><g fill="#ffffff" fill-opacity="1"><g transform="translate(108.788965, 193.954207)"><g><path d="M 34.859375 0 L 12 0 L 12 -116.640625 L 34.859375 -116.640625 Z M 34.859375 0 "/></g></g></g><g fill="#ffffff" fill-opacity="1"><g transform="translate(155.643256, 193.954207)"><g><path d="M 11.015625 -105.484375 C 11.015625 -112.921875 15.164062 -116.640625 23.46875 -116.640625 C 31.757812 -116.640625 35.90625 -112.921875 35.90625 -105.484375 C 35.90625 -101.929688 34.867188 -99.164062 32.796875 -97.1875 C 30.722656 -95.21875 27.613281 -94.234375 23.46875 -94.234375 C 15.164062 -94.234375 11.015625 -97.984375 11.015625 -105.484375 Z M 34.859375 0 L 12 0 L 12 -83.8125 L 34.859375 -83.8125 Z M 34.859375 0 "/></g></g></g><g fill="#ffffff" fill-opacity="1"><g transform="translate(202.497547, 193.954207)"><g><path d="M 70.46875 -24.890625 C 70.46875 -16.296875 67.476562 -9.75 61.5 -5.25 C 55.53125 -0.75 46.597656 1.5 34.703125 1.5 C 28.609375 1.5 23.410156 1.085938 19.109375 0.265625 C 14.816406 -0.554688 10.796875 -1.769531 7.046875 -3.375 L 7.046875 -22.265625 C 11.296875 -20.265625 16.082031 -18.585938 21.40625 -17.234375 C 26.726562 -15.890625 31.410156 -15.21875 35.453125 -15.21875 C 43.753906 -15.21875 47.90625 -17.617188 47.90625 -22.421875 C 47.90625 -24.210938 47.351562 -25.671875 46.25 -26.796875 C 45.15625 -27.921875 43.257812 -29.195312 40.5625 -30.625 C 37.863281 -32.050781 34.265625 -33.710938 29.765625 -35.609375 C 23.316406 -38.304688 18.578125 -40.800781 15.546875 -43.09375 C 12.523438 -45.394531 10.328125 -48.03125 8.953125 -51 C 7.578125 -53.976562 6.890625 -57.644531 6.890625 -62 C 6.890625 -69.445312 9.773438 -75.207031 15.546875 -79.28125 C 21.328125 -83.351562 29.515625 -85.390625 40.109375 -85.390625 C 50.203125 -85.390625 60.019531 -83.191406 69.5625 -78.796875 L 62.671875 -62.296875 C 58.472656 -64.097656 54.546875 -65.570312 50.890625 -66.71875 C 47.242188 -67.863281 43.523438 -68.4375 39.734375 -68.4375 C 32.984375 -68.4375 29.609375 -66.613281 29.609375 -62.96875 C 29.609375 -60.914062 30.695312 -59.140625 32.875 -57.640625 C 35.050781 -56.148438 39.8125 -53.929688 47.15625 -50.984375 C 53.695312 -48.328125 58.492188 -45.847656 61.546875 -43.546875 C 64.597656 -41.253906 66.847656 -38.609375 68.296875 -35.609375 C 69.742188 -32.609375 70.46875 -29.035156 70.46875 -24.890625 Z M 70.46875 -24.890625 "/></g></g></g><g fill="#ffffff" fill-opacity="1"><g transform="translate(278.813797, 193.954207)"><g><path d="M 30.21875 -42.0625 C 30.21875 -33.757812 31.578125 -27.484375 34.296875 -23.234375 C 37.023438 -18.992188 41.460938 -16.875 47.609375 -16.875 C 53.703125 -16.875 58.082031 -18.984375 60.75 -23.203125 C 63.425781 -27.421875 64.765625 -33.707031 64.765625 -42.0625 C 64.765625 -50.351562 63.414062 -56.570312 60.71875 -60.71875 C 58.019531 -64.863281 53.597656 -66.9375 47.453125 -66.9375 C 41.359375 -66.9375 36.960938 -64.875 34.265625 -60.75 C 31.566406 -56.632812 30.21875 -50.40625 30.21875 -42.0625 Z M 88.15625 -42.0625 C 88.15625 -28.414062 84.554688 -17.742188 77.359375 -10.046875 C 70.160156 -2.347656 60.140625 1.5 47.296875 1.5 C 39.253906 1.5 32.160156 -0.257812 26.015625 -3.78125 C 19.867188 -7.3125 15.144531 -12.375 11.84375 -18.96875 C 8.539062 -25.5625 6.890625 -33.257812 6.890625 -42.0625 C 6.890625 -55.75 10.460938 -66.390625 17.609375 -73.984375 C 24.765625 -81.585938 34.8125 -85.390625 47.75 -85.390625 C 55.800781 -85.390625 62.898438 -83.640625 69.046875 -80.140625 C 75.191406 -76.640625 79.910156 -71.613281 83.203125 -65.0625 C 86.503906 -58.519531 88.15625 -50.851562 88.15625 -42.0625 Z M 88.15625 -42.0625 "/></g></g></g><g fill="#ffffff" fill-opacity="1"><g transform="translate(373.871771, 193.954207)"><g><path d="M 89.359375 0 L 66.5 0 L 66.5 -48.953125 C 66.5 -55.003906 65.421875 -59.539062 63.265625 -62.5625 C 61.117188 -65.582031 57.695312 -67.09375 53 -67.09375 C 46.601562 -67.09375 41.976562 -64.957031 39.125 -60.6875 C 36.28125 -56.414062 34.859375 -49.332031 34.859375 -39.4375 L 34.859375 0 L 12 0 L 12 -83.8125 L 29.46875 -83.8125 L 32.53125 -73.09375 L 33.8125 -73.09375 C 36.363281 -77.144531 39.875 -80.207031 44.34375 -82.28125 C 48.8125 -84.351562 53.894531 -85.390625 59.59375 -85.390625 C 69.34375 -85.390625 76.738281 -82.75 81.78125 -77.46875 C 86.832031 -72.195312 89.359375 -64.59375 89.359375 -54.65625 Z M 89.359375 0 "/></g></g></g><g fill="#5e17eb" fill-opacity="1"><g transform="translate(470.259207, 193.250064)"><g><path d="M 8.75 -10.6875 C 8.75 -14.875 9.867188 -18.035156 12.109375 -20.171875 C 14.347656 -22.316406 17.613281 -23.390625 21.90625 -23.390625 C 26.039062 -23.390625 29.238281 -22.289062 31.5 -20.09375 C 33.769531 -17.90625 34.90625 -14.769531 34.90625 -10.6875 C 34.90625 -6.75 33.757812 -3.644531 31.46875 -1.375 C 29.175781 0.882812 25.988281 2.015625 21.90625 2.015625 C 17.71875 2.015625 14.476562 0.90625 12.1875 -1.3125 C 9.894531 -3.53125 8.75 -6.65625 8.75 -10.6875 Z M 8.75 -10.6875 "/></g></g></g></svg>